<svg xmlns="http://www.w3.org/2000/svg" viewBox="0 96 960 960"><path d="M726.667 609.333H233.333q-14.166 0-23.75-9.617Q200 590.099 200 575.883q0-14.216 9.583-23.716 9.584-9.5 23.75-9.5h493.334q14.166 0 23.75 9.617Q760 561.901 760 576.117q0 14.216-9.583 23.716-9.584 9.5-23.75 9.5Zm-80 166.667H153.333q-14.166 0-23.75-9.617Q120 756.766 120 742.55q0-14.216 9.583-23.716 9.584-9.5 23.75-9.5h493.334q14.166 0 23.75 9.617Q680 728.568 680 742.784q0 14.216-9.583 23.716-9.584 9.5-23.75 9.5Zm160-333.334H313.333q-14.166 0-23.75-9.617Q280 423.432 280 409.216q0-14.216 9.583-23.716 9.584-9.5 23.75-9.5h493.334q14.166 0 23.75 9.617Q840 395.234 840 409.45q0 14.216-9.583 23.716-9.584 9.5-23.75 9.5Z"/></svg>