<svg xmlns="http://www.w3.org/2000/svg" viewBox="0 96 960 960"><path d="M232 792q-9.667-9.667-9.667-23.333 0-13.667 9.667-23.333l169.667-170.001-170.334-170q-9.666-9.667-9.5-22.833Q222 369.333 232 359.333q9.667-9.666 23.333-9.666 13.667 0 23.334 9.666L471.333 552q5.334 5.333 7.5 11Q481 568.667 481 575.333 481 582 478.833 588q-2.166 6-7.5 11.333L278 792.667q-9.667 9.666-22.833 9.5Q242 802 232 792Zm256.667 0Q479 782.333 479 768.667q0-13.667 9.667-23.333l169.667-170.001-170.334-170q-9.667-9.667-9.5-22.833.167-13.167 10.167-23.167 9.666-9.666 23.333-9.666 13.666 0 23.333 9.666L728 552q5.333 5.333 7.5 11t2.167 12.333q0 6.667-2.167 12.667t-7.5 11.333L534.666 792.667q-9.666 9.666-22.833 9.5Q498.667 802 488.667 792Z"/></svg>