<svg xmlns="http://www.w3.org/2000/svg" viewBox="0 96 960 960"><path d="M682 792 488.667 599.333q-5.334-5.333-7.5-11Q479 582.667 479 576t2.167-12.667q2.166-6 7.5-11.333L682 358.667q9.667-9.667 23.167-9.5 13.5.166 23.5 10.166 9.666 9.667 9.666 23.333 0 13.667-9.666 23.334L558.999 576l169.668 170q9.666 9.667 9.833 22.834.167 13.166-9.833 23.166-9.667 9.667-23.334 9.667-13.666 0-23.333-9.667Zm-256.666 0L232 599.333q-5.333-5.333-7.5-11-2.167-5.666-2.167-12.333t2.167-12.667q2.167-6 7.5-11.333l193.334-193.333Q435 349 448.5 349.167q13.5.166 23.5 10.166 9.667 9.667 9.667 23.333 0 13.667-9.667 23.334L302.333 576 472 746q9.667 9.667 9.833 22.834Q482 782 472 792q-9.667 9.667-23.333 9.667-13.667 0-23.333-9.667Z"/></svg>