<svg xmlns="http://www.w3.org/2000/svg" viewBox="0 96 960 960"><path d="M600.117 736q14.216 0 23.716-9.583 9.5-9.584 9.5-23.75v-53.334h53.334q14.166 0 23.75-9.617Q720 630.099 720 615.883q0-14.216-9.583-23.716-9.584-9.5-23.75-9.5h-53.334v-53.334q0-14.166-9.617-23.75Q614.099 496 599.883 496q-14.216 0-23.716 9.583-9.5 9.584-9.5 23.75v53.334h-53.334q-14.166 0-23.75 9.617Q480 601.901 480 616.117q0 14.216 9.583 23.716 9.584 9.5 23.75 9.5h53.334v53.334q0 14.166 9.617 23.75Q585.901 736 600.117 736ZM147.333 896q-27 0-46.833-20.167-19.833-20.166-19.833-46.499V322.666q0-26.333 19.833-46.499Q120.333 256 147.333 256h239.001q13.392 0 25.529 5t21.804 14.667l47 46.999H814q26.334 0 46.5 20.167 20.167 20.166 20.167 46.5v440.001q0 26.333-20.167 46.499Q840.334 896 814 896H147.333Z"/></svg>