<svg xmlns="http://www.w3.org/2000/svg" style="display: none;">
  <symbol id="dark-mode" viewBox="0 96 960 960" width="24" height="24" viewBox="0 96 960 960" fill="#ddd">
    <path d="M480 936q-150.333 0-255.167-104.833Q120 726.333 120 576q0-136 83-232.5t215.666-120.167Q454.333 217 469 238.667q14.666 21.666-1 54.667-11.667 24-17.833 49.666Q444 368.667 444 396q0 90 63 153t153 63q27 0 52.833-6t48.5-16.666q35.667-15.334 57 .5 21.334 15.833 13.667 52.833-22.667 126.667-119.834 210Q615 936 480 936Z"/> 
  </symbol>
  <symbol id="before-navigate" viewBox="0 96 960 960">
    <path d="M536.667 792 343.333 598.667q-5.333-5.334-7.5-11-2.166-5.667-2.166-12.334 0-6.666 2.166-12.333 2.167-5.667 7.5-11l194-194Q547 348.333 561 348.333q14 0 23.667 9.667 9.666 9.666 9.333 24-.333 14.333-10 24L414.666 575.333l170.001 170.001q9.666 9.666 9.666 23.333 0 13.666-9.666 23.333-9.667 9.667-24 9.667-14.334 0-24-9.667Z"/>
  </symbol>
  <symbol id="clear" viewBox="0 96 960 960">
    <path d="M726.667 609.333H233.333q-14.166 0-23.75-9.617Q200 590.099 200 575.883q0-14.216 9.583-23.716 9.584-9.5 23.75-9.5h493.334q14.166 0 23.75 9.617Q760 561.901 760 576.117q0 14.216-9.583 23.716-9.584 9.5-23.75 9.5Zm-80 166.667H153.333q-14.166 0-23.75-9.617Q120 756.766 120 742.55q0-14.216 9.583-23.716 9.584-9.5 23.75-9.5h493.334q14.166 0 23.75 9.617Q680 728.568 680 742.784q0 14.216-9.583 23.716-9.584 9.5-23.75 9.5Zm160-333.334H313.333q-14.166 0-23.75-9.617Q280 423.432 280 409.216q0-14.216 9.583-23.716 9.584-9.5 23.75-9.5h493.334q14.166 0 23.75 9.617Q840 395.234 840 409.45q0 14.216-9.583 23.716-9.584 9.5-23.75 9.5Z"/>
  </symbol>
</svg>