<svg xmlns="http://www.w3.org/2000/svg" viewBox="0 -960 960 960" ><path d="M355.85-385.333q-22.183 0-37.35-15.317-15.167-15.317-15.167-37.5t15.317-37.35q15.317-15.167 37.5-15.167t37.35 15.317q15.167 15.317 15.167 37.5T393.35-400.5q-15.317 15.167-37.5 15.167Zm248.667 0q-22.184 0-37.35-15.317Q552-415.967 552-438.15t15.317-37.35q15.317-15.167 37.5-15.167t37.35 15.317q15.167 15.317 15.167 37.5t-15.317 37.35q-15.317 15.167-37.5 15.167ZM480-146.666q139.583 0 236.459-96.966 96.875-96.965 96.875-236.678 0-25.023-3.667-49.19-3.667-24.167-10.333-45.167-20.334 5-42.841 7.167-22.508 2.167-47.159 2.167-95.077 0-179.705-39.667Q445-644.667 385.333-717.334q-33.333 80-95.5 139.501-62.167 59.5-143.167 91.166V-480q0 139.583 96.875 236.459Q340.417-146.666 480-146.666ZM480-80q-83 0-156-31.5T197-197q-54-54-85.5-127T80-480q0-83 31.5-156T197-763q54-54 127-85.5T480-880q83 0 156 31.5T763-763q54 54 85.5 127T880-480q0 83-31.5 156T763-197q-54 54-127 85.5T480-80Z"/></svg>