<svg xmlns="http://www.w3.org/2000/svg" width="24" height="24" viewBox="0 96 960 960"><path d="M480 776q-83 0-141.5-58.5T280 576q0-83 58.5-141.5T480 376q83 0 141.5 58.5T680 576q0 83-58.5 141.5T480 776ZM73.333 609.333q-14.166 0-23.75-9.617Q40 590.099 40 575.883q0-14.216 9.583-23.716 9.584-9.5 23.75-9.5h93.334q14.166 0 23.75 9.617Q200 561.901 200 576.117q0 14.216-9.583 23.716-9.584 9.5-23.75 9.5H73.333Zm720 0q-14.166 0-23.75-9.617Q760 590.099 760 575.883q0-14.216 9.583-23.716 9.584-9.5 23.75-9.5h93.334q14.166 0 23.75 9.617Q920 561.901 920 576.117q0 14.216-9.583 23.716-9.584 9.5-23.75 9.5h-93.334ZM479.883 296q-14.216 0-23.716-9.583-9.5-9.584-9.5-23.75v-93.334q0-14.166 9.617-23.75Q465.901 136 480.117 136q14.216 0 23.716 9.583 9.5 9.584 9.5 23.75v93.334q0 14.166-9.617 23.75Q494.099 296 479.883 296Zm0 720q-14.216 0-23.716-9.58-9.5-9.587-9.5-23.753v-93.334q0-14.166 9.617-23.75Q465.901 856 480.117 856q14.216 0 23.716 9.583 9.5 9.584 9.5 23.75v93.334q0 14.166-9.617 23.753-9.617 9.58-23.833 9.58ZM235.334 378 183 326.666q-10-9.666-9.586-23.735.414-14.069 9.517-24 9.931-9.931 24-9.931t23.735 10L282 331.334q9 10 9 23.333 0 13.333-9 23-9 9.666-22.833 9.5Q245.334 387 235.334 378Zm494 495L678 820.666q-9-10-9-23.749 0-13.75 9.333-22.917 9.334-10 22.834-9.833 13.499.166 23.499 9.833L777 825.334q10 9.666 9.586 23.735-.414 14.069-9.517 24-9.931 9.931-24 9.931t-23.735-10ZM678 378q-10-9.667-9.833-23.167.166-13.499 9.833-23.499L729.334 279q9.666-10 23.735-9.586 14.069.414 24 9.517 9.931 9.931 9.931 24t-10 23.735L724.666 378q-9.333 9-22.909 9-13.575 0-23.757-9ZM182.931 873.069q-9.931-9.931-9.931-24t10-23.735L235.334 774q9.866-9.667 23.433-9.667 13.566 0 22.972 9.667 10.261 9.667 10.094 23.167-.166 13.499-9.833 23.499L230.666 873q-9.666 10-23.735 9.586-14.069-.414-24-9.517Z"/></svg>