<svg xmlns="http://www.w3.org/2000/svg" viewBox="0 96 960 960"><path d="M355.85 670.667q-22.183 0-37.35-15.317-15.167-15.317-15.167-37.5t15.317-37.35q15.317-15.167 37.5-15.167t37.35 15.317q15.167 15.317 15.167 37.5T393.35 655.5q-15.317 15.167-37.5 15.167Zm248.667 0q-22.184 0-37.35-15.317Q552 640.033 552 617.85t15.317-37.35q15.317-15.167 37.5-15.167t37.35 15.317q15.167 15.317 15.167 37.5t-15.317 37.35q-15.317 15.167-37.5 15.167ZM480 909.334q139.583 0 236.459-96.965 96.875-96.966 96.875-236.679 0-25.023-3.667-49.19-3.667-24.167-10.333-45.167-20.334 5-42.841 7.167-22.508 2.167-47.159 2.167-95.077 0-179.705-39.667Q445 411.333 385.333 338.666q-33.333 80-95.5 139.501-62.167 59.5-143.167 91.166V576q0 139.583 96.875 236.459Q340.417 909.334 480 909.334ZM480 976q-83 0-156-31.5T197 859q-54-54-85.5-127T80 576q0-83 31.5-156T197 293q54-54 127-85.5T480 176q83 0 156 31.5T763 293q54 54 85.5 127T880 576q0 83-31.5 156T763 859q-54 54-127 85.5T480 976Z"/></svg>