<svg xmlns="http://www.w3.org/2000/svg" viewBox="0 -960 960 960" ><path d="M285.334-254.667q-6.667 0-12.333-2.333-5.667-2.333-11-7.667l-177-177q-9.667-9.666-9.334-24.5Q76.001-481 85-490q10.334-10.333 23.667-10 13.333.333 23 10l154 154L333-288.666l-24.333 23.999q-5.333 5.334-11 7.667t-12.333 2.333ZM473.999-255q-6.666 0-12.333-2.167-5.666-2.166-11-7.5L273.333-442q-9.667-9.667-9.667-24.167 0-14.5 9.667-24.166Q282.999-500 296.666-500q13.666 0 23.333 9.667l154 154 355.334-355.334Q839-701.333 853-701.333q14 0 23.666 9.666 9.667 9.667 9.667 23.834 0 14.166-9.667 23.833L497.333-264.667q-5.334 5.334-11 7.5Q480.666-255 473.999-255Zm0-174.999-47.666-47.333 214.001-214.001Q650.001-701 664.168-701q14.166 0 23.833 9.667 9.666 9.666 9.666 23.666T688.001-644L473.999-429.999Z"/></svg>