<svg xmlns="http://www.w3.org/2000/svg" viewBox="0 -960 960 960" ><path d="M570.667-208.333v-273q0-14.334 9.5-23.834t23.833-9.5q14.333 0 23.833 9.5 9.5 9.5 9.5 23.834v273.667L730.334-300q9-9 22.5-9.166 13.5-.167 23.499 9.833 10 9.667 10.167 23.166.167 13.5-9.833 23.5L628-104q-5.333 5.333-11.333 7.5t-12 2.167Q598-94.333 592-96.5t-10.666-7.5L432-254q-9-9-9-22.5t10-23.5q9.333-9.666 23-9.5 13.667.167 23.667 10.167l91 91ZM321.333-753.001l-91.667 91.667q-9.666 9.667-23 9.334-13.333-.334-22.999-10-10-10-10-23.5t9.666-23.167L332-857.333q5.333-5.334 11-7.5Q348.667-867 355.333-867q6.667 0 12.333 2.167 5.667 2.166 11 7.5L528-708q9 9 9 22.667 0 13.666-9.667 23.333-10 10-23.5 10t-23.5-10L388-753.667V-480q0 14.333-9.5 23.833-9.5 9.5-23.833 9.5-14.334 0-23.834-9.5t-9.5-23.833v-273.001Z"/></svg>